<?xml version="1.0" encoding="utf-8"?>
<!-- Generator: Adobe Illustrator 19.0.0, SVG Export Plug-In . SVG Version: 6.00 Build 0)  -->
<svg version="1.1" id="Layer_1" xmlns="http://www.w3.org/2000/svg" xmlns:xlink="http://www.w3.org/1999/xlink" x="0px" y="0px"
	 viewBox="654 -144 1200 171" style="enable-background:new 654 -144 1200 171;" xml:space="preserve">
<style type="text/css">
	.st0{fill:#FFFFFF;}
</style>
<g>
	<polygon class="st0" points="738.5,-35.6 711.1,-139.9 659.3,-139.9 712.9,16.9 764.5,16.9 818.9,-139.9 767.1,-139.9 	"/>
	<rect x="826.2" y="-139.9" class="st0" width="51.4" height="156.7"/>
	<path class="st0" d="M975.6-17.3c-26.1,0-30.9-20.7-30.9-42.7c0-30.3,10.9-45.7,29-45.7c16.1,0,26.3,9.4,27.9,25.7h48.8
		c-4.1-40.3-30.9-64-78.8-64c-43.8,0-78.2,31.6-78.2,82.3c0,50.9,31.3,82.7,83.2,82.7c41.4,0,70.3-24.4,74.9-64.9h-49.4
		C999.9-28.8,992.1-17.3,975.6-17.3z"/>
	<polygon class="st0" points="1119.8,-44.3 1189.4,-44.3 1189.4,-80.9 1119.8,-80.9 1119.8,-103.3 1196.2,-103.3 1196.2,-139.9 
		1068.4,-139.9 1068.4,16.9 1199.2,16.9 1199.2,-19.7 1119.8,-19.7 	"/>
	<polygon class="st0" points="1273,-139.9 1221.6,-139.9 1221.6,16.9 1343.5,16.9 1343.5,-19.7 1273,-19.7 	"/>
	<path class="st0" d="M1407.9-139.9l-56.2,156.7h50.3l5.9-20.7h51.2l6.1,20.7h51.2l-56.2-156.7L1407.9-139.9L1407.9-139.9z
		 M1417.7-36.5l15.9-56.2l16.5,56.2H1417.7z"/>
	<polygon class="st0" points="1626.2,-90 1628.2,-54.3 1572.2,-139.9 1524.1,-139.9 1524.1,16.9 1573.3,16.9 1573.3,-32.8 
		1571.4,-68.5 1627.3,16.9 1675.4,16.9 1675.4,-139.9 1626.2,-139.9 	"/>
	<path class="st0" d="M1766-139.9h-68.8V16.8h67.5c50.3,0,83.2-22.6,83.2-81.6C1847.9-116.4,1816.5-139.9,1766-139.9z M1759.5-19.7
		h-10.9v-83.6h9.8c27.4,0,38.1,8.7,38.1,41.4C1796.5-32.3,1783.4-19.7,1759.5-19.7z"/>
</g>
</svg>
